<svg 
 xmlns="http://www.w3.org/2000/svg"
 xmlns:xlink="http://www.w3.org/1999/xlink"
 width="17px" height="16px">
<path fill-rule="evenodd"  fill="rgb(255, 255, 255)"
 d="M13.581,12.600 C13.570,12.643 13.542,12.679 13.504,12.701 C13.479,12.714 13.452,12.722 13.424,12.722 C13.408,12.722 13.392,12.719 13.377,12.715 C13.377,12.715 7.553,10.956 7.553,10.956 C7.501,10.940 7.461,10.900 7.445,10.849 C7.430,10.796 7.442,10.740 7.477,10.700 C7.477,10.700 13.274,3.896 13.274,3.896 C13.274,3.896 5.727,10.293 5.727,10.293 C5.685,10.332 5.625,10.344 5.570,10.327 C5.570,10.327 0.608,8.762 0.608,8.762 C0.546,8.742 0.502,8.687 0.496,8.622 C0.491,8.557 0.525,8.496 0.584,8.466 C0.584,8.466 16.262,0.517 16.262,0.517 C16.318,0.488 16.386,0.495 16.436,0.533 C16.485,0.572 16.507,0.636 16.492,0.698 C16.492,0.698 13.581,12.600 13.581,12.600 ZM7.648,12.203 C7.648,12.203 9.257,12.694 9.257,12.694 C9.305,12.709 9.344,12.745 9.362,12.792 C9.379,12.838 9.374,12.891 9.346,12.933 C9.346,12.933 7.737,15.454 7.737,15.454 C7.706,15.501 7.655,15.529 7.601,15.529 C7.585,15.529 7.570,15.526 7.556,15.522 C7.486,15.502 7.439,15.440 7.439,15.368 C7.439,15.368 7.439,12.356 7.439,12.356 C7.439,12.305 7.463,12.257 7.505,12.227 C7.546,12.197 7.599,12.187 7.648,12.203 Z"/>
</svg>